<mxfile host="app.diagrams.net" modified="2024-04-13T03:13:22.583Z" agent="Mozilla/5.0 (Windows NT 10.0; Win64; x64) AppleWebKit/537.36 (KHTML, like Gecko) Chrome/123.0.0.0 Safari/537.36" etag="c60kWGVRyTR5LRiylQ5P" version="24.2.3" type="device">
  <diagram name="Page-1" id="gmy27h34zEKqvhndM0hi">
    <mxGraphModel dx="1434" dy="738" grid="1" gridSize="10" guides="1" tooltips="1" connect="1" arrows="1" fold="1" page="1" pageScale="1" pageWidth="827" pageHeight="1169" math="0" shadow="0">
      <root>
        <mxCell id="0" />
        <mxCell id="1" parent="0" />
        <mxCell id="3JXjni5HWg_23pnpxFX2-1" value="" style="rounded=0;whiteSpace=wrap;html=1;rotation=-180;" vertex="1" parent="1">
          <mxGeometry x="80" y="50" width="540" height="120" as="geometry" />
        </mxCell>
        <mxCell id="3JXjni5HWg_23pnpxFX2-2" value="TeaStore Customers" style="text;html=1;align=center;verticalAlign=middle;whiteSpace=wrap;rounded=0;" vertex="1" parent="1">
          <mxGeometry x="265" y="50" width="190" height="30" as="geometry" />
        </mxCell>
        <mxCell id="3JXjni5HWg_23pnpxFX2-3" value="Customer" style="shape=umlActor;verticalLabelPosition=bottom;verticalAlign=top;html=1;outlineConnect=0;" vertex="1" parent="1">
          <mxGeometry x="335.5" y="90" width="30" height="60" as="geometry" />
        </mxCell>
        <mxCell id="3JXjni5HWg_23pnpxFX2-8" value="Customer" style="shape=umlActor;verticalLabelPosition=bottom;verticalAlign=top;html=1;outlineConnect=0;" vertex="1" parent="1">
          <mxGeometry x="235" y="90" width="30" height="60" as="geometry" />
        </mxCell>
        <mxCell id="3JXjni5HWg_23pnpxFX2-11" value="" style="rounded=0;whiteSpace=wrap;html=1;rotation=-180;" vertex="1" parent="1">
          <mxGeometry x="92.5" y="260" width="520" height="30" as="geometry" />
        </mxCell>
        <mxCell id="3JXjni5HWg_23pnpxFX2-13" value="Enterprise Service Bus (ESB)" style="text;html=1;align=center;verticalAlign=middle;whiteSpace=wrap;rounded=0;" vertex="1" parent="1">
          <mxGeometry x="265" y="260" width="171" height="30" as="geometry" />
        </mxCell>
        <mxCell id="3JXjni5HWg_23pnpxFX2-17" value="Customer" style="shape=umlActor;verticalLabelPosition=bottom;verticalAlign=top;html=1;outlineConnect=0;" vertex="1" parent="1">
          <mxGeometry x="436" y="90" width="30" height="60" as="geometry" />
        </mxCell>
        <mxCell id="3JXjni5HWg_23pnpxFX2-18" value="Authentication" style="rounded=0;whiteSpace=wrap;html=1;" vertex="1" parent="1">
          <mxGeometry x="190" y="340" width="90" height="60" as="geometry" />
        </mxCell>
        <mxCell id="3JXjni5HWg_23pnpxFX2-19" value="Recommendation" style="rounded=0;whiteSpace=wrap;html=1;" vertex="1" parent="1">
          <mxGeometry x="302.5" y="340" width="96" height="60" as="geometry" />
        </mxCell>
        <mxCell id="3JXjni5HWg_23pnpxFX2-20" value="User Interface" style="rounded=0;whiteSpace=wrap;html=1;" vertex="1" parent="1">
          <mxGeometry x="530" y="340" width="90" height="60" as="geometry" />
        </mxCell>
        <mxCell id="3JXjni5HWg_23pnpxFX2-21" value="Order Service" style="rounded=0;whiteSpace=wrap;html=1;" vertex="1" parent="1">
          <mxGeometry x="410" y="340" width="100" height="60" as="geometry" />
        </mxCell>
        <mxCell id="3JXjni5HWg_23pnpxFX2-29" value="Services Layer&lt;div&gt;&lt;br&gt;&lt;/div&gt;" style="text;html=1;align=center;verticalAlign=middle;whiteSpace=wrap;rounded=0;" vertex="1" parent="1">
          <mxGeometry x="60" y="380" width="110" as="geometry" />
        </mxCell>
        <mxCell id="3JXjni5HWg_23pnpxFX2-30" value="" style="rounded=1;whiteSpace=wrap;html=1;" vertex="1" parent="1">
          <mxGeometry x="90" y="440" width="530" height="80" as="geometry" />
        </mxCell>
        <mxCell id="3JXjni5HWg_23pnpxFX2-31" value="" style="shape=cylinder3;whiteSpace=wrap;html=1;boundedLbl=1;backgroundOutline=1;size=15;" vertex="1" parent="1">
          <mxGeometry x="145" y="445" width="78.75" height="70" as="geometry" />
        </mxCell>
        <mxCell id="3JXjni5HWg_23pnpxFX2-34" value="Database" style="text;html=1;align=center;verticalAlign=middle;whiteSpace=wrap;rounded=0;" vertex="1" parent="1">
          <mxGeometry x="154.38" y="480" width="60" height="30" as="geometry" />
        </mxCell>
        <mxCell id="3JXjni5HWg_23pnpxFX2-35" value="" style="shape=cylinder3;whiteSpace=wrap;html=1;boundedLbl=1;backgroundOutline=1;size=15;" vertex="1" parent="1">
          <mxGeometry x="313.13" y="445" width="78.75" height="70" as="geometry" />
        </mxCell>
        <mxCell id="3JXjni5HWg_23pnpxFX2-36" value="" style="shape=cylinder3;whiteSpace=wrap;html=1;boundedLbl=1;backgroundOutline=1;size=15;" vertex="1" parent="1">
          <mxGeometry x="466" y="445" width="78.75" height="70" as="geometry" />
        </mxCell>
        <mxCell id="3JXjni5HWg_23pnpxFX2-37" value="Database" style="text;html=1;align=center;verticalAlign=middle;whiteSpace=wrap;rounded=0;" vertex="1" parent="1">
          <mxGeometry x="322.5" y="480" width="60" height="30" as="geometry" />
        </mxCell>
        <mxCell id="3JXjni5HWg_23pnpxFX2-38" value="Database" style="text;html=1;align=center;verticalAlign=middle;whiteSpace=wrap;rounded=0;" vertex="1" parent="1">
          <mxGeometry x="475.38" y="480" width="60" height="30" as="geometry" />
        </mxCell>
        <mxCell id="3JXjni5HWg_23pnpxFX2-39" value="" style="endArrow=classic;startArrow=classic;html=1;rounded=0;entryX=0.5;entryY=1;entryDx=0;entryDy=0;exitX=0.5;exitY=0;exitDx=0;exitDy=0;" edge="1" parent="1" source="3JXjni5HWg_23pnpxFX2-19" target="3JXjni5HWg_23pnpxFX2-13">
          <mxGeometry width="50" height="50" relative="1" as="geometry">
            <mxPoint x="390" y="410" as="sourcePoint" />
            <mxPoint x="440" y="360" as="targetPoint" />
          </mxGeometry>
        </mxCell>
        <mxCell id="3JXjni5HWg_23pnpxFX2-40" value="" style="endArrow=classic;startArrow=classic;html=1;rounded=0;entryX=0.75;entryY=0;entryDx=0;entryDy=0;exitX=0.356;exitY=0.033;exitDx=0;exitDy=0;exitPerimeter=0;" edge="1" parent="1" source="3JXjni5HWg_23pnpxFX2-18" target="3JXjni5HWg_23pnpxFX2-11">
          <mxGeometry width="50" height="50" relative="1" as="geometry">
            <mxPoint x="390" y="410" as="sourcePoint" />
            <mxPoint x="440" y="360" as="targetPoint" />
          </mxGeometry>
        </mxCell>
        <mxCell id="3JXjni5HWg_23pnpxFX2-41" value="" style="endArrow=classic;startArrow=classic;html=1;rounded=0;entryX=0.75;entryY=0;entryDx=0;entryDy=0;exitX=0.356;exitY=0.033;exitDx=0;exitDy=0;exitPerimeter=0;" edge="1" parent="1">
          <mxGeometry width="50" height="50" relative="1" as="geometry">
            <mxPoint x="465" y="340" as="sourcePoint" />
            <mxPoint x="465" y="288" as="targetPoint" />
          </mxGeometry>
        </mxCell>
        <mxCell id="3JXjni5HWg_23pnpxFX2-42" value="" style="endArrow=classic;startArrow=classic;html=1;rounded=0;entryX=0.75;entryY=0;entryDx=0;entryDy=0;exitX=0.356;exitY=0.033;exitDx=0;exitDy=0;exitPerimeter=0;" edge="1" parent="1">
          <mxGeometry width="50" height="50" relative="1" as="geometry">
            <mxPoint x="574.5" y="342" as="sourcePoint" />
            <mxPoint x="574.5" y="290" as="targetPoint" />
          </mxGeometry>
        </mxCell>
        <mxCell id="3JXjni5HWg_23pnpxFX2-43" value="" style="endArrow=classic;startArrow=classic;html=1;rounded=0;entryX=0.687;entryY=0.008;entryDx=0;entryDy=0;entryPerimeter=0;exitX=0.699;exitY=0.9;exitDx=0;exitDy=0;exitPerimeter=0;" edge="1" parent="1" source="3JXjni5HWg_23pnpxFX2-11" target="3JXjni5HWg_23pnpxFX2-1">
          <mxGeometry width="50" height="50" relative="1" as="geometry">
            <mxPoint x="252" y="260" as="sourcePoint" />
            <mxPoint x="252" y="320" as="targetPoint" />
          </mxGeometry>
        </mxCell>
        <mxCell id="3JXjni5HWg_23pnpxFX2-44" value="" style="endArrow=classic;startArrow=classic;html=1;rounded=0;entryX=0.687;entryY=0.008;entryDx=0;entryDy=0;entryPerimeter=0;exitX=0.699;exitY=0.9;exitDx=0;exitDy=0;exitPerimeter=0;" edge="1" parent="1">
          <mxGeometry width="50" height="50" relative="1" as="geometry">
            <mxPoint x="350" y="263" as="sourcePoint" />
            <mxPoint x="350" y="169" as="targetPoint" />
          </mxGeometry>
        </mxCell>
        <mxCell id="3JXjni5HWg_23pnpxFX2-45" value="" style="endArrow=classic;startArrow=classic;html=1;rounded=0;entryX=0.687;entryY=0.008;entryDx=0;entryDy=0;entryPerimeter=0;exitX=0.699;exitY=0.9;exitDx=0;exitDy=0;exitPerimeter=0;" edge="1" parent="1">
          <mxGeometry width="50" height="50" relative="1" as="geometry">
            <mxPoint x="455" y="264" as="sourcePoint" />
            <mxPoint x="455" y="170" as="targetPoint" />
          </mxGeometry>
        </mxCell>
      </root>
    </mxGraphModel>
  </diagram>
</mxfile>
